<svg xmlns="http://www.w3.org/2000/svg"  viewBox="0 0 100 100" width="48px" height="48px" baseProfile="basic"><path fill="#fef6aa" d="M82,29.429v41.143C82,76.857,76.857,82,70.571,82H29.429C23.143,82,18,76.857,18,70.571V29.429	C18,23.143,23.143,18,29.429,18h41.143C76.857,18,82,23.143,82,29.429z"/><path fill="#b77748" d="M82,65.5v5.07C82,76.86,76.86,82,70.57,82H29.43C23.14,82,18,76.86,18,70.57V65.5c0,0,1.5-5,12.5-5	c12.88,0,19.5,0,19.5,0s6.62,0,19.5,0C80.5,60.5,82,65.5,82,65.5z"/><path fill="#1f212b" d="M70.571,83H29.429C22.576,83,17,77.424,17,70.571V29.429C17,22.576,22.576,17,29.429,17h41.143	C77.424,17,83,22.576,83,29.429v41.143C83,77.424,77.424,83,70.571,83z M29.429,19C23.678,19,19,23.678,19,29.429v41.143	C19,76.322,23.678,81,29.429,81h41.143C76.322,81,81,76.322,81,70.571V29.429C81,23.678,76.322,19,70.571,19H29.429z"/><path fill="#1f212b" d="M30.435,78h-1.006c-2.455,0-4.75-1.215-6.14-3.251c-0.156-0.228-0.097-0.539,0.131-0.695	c0.229-0.154,0.539-0.097,0.695,0.131C25.318,75.948,27.304,77,29.429,77h1.006c0.276,0,0.5,0.224,0.5,0.5S30.711,78,30.435,78z"/><path fill="#1f212b" d="M70.571,78H33.598c-0.276,0-0.5-0.224-0.5-0.5s0.224-0.5,0.5-0.5h36.974	c2.49,0,4.78-1.463,5.833-3.728c0.117-0.25,0.412-0.358,0.664-0.242c0.25,0.116,0.359,0.414,0.242,0.664	C76.094,76.31,73.449,78,70.571,78z"/><path fill="#1f212b" d="M22.5,58c-0.276,0-0.5-0.224-0.5-0.5V29.429C22,25.333,25.333,22,29.429,22h41.143	C74.667,22,78,25.333,78,29.429V43.5c0,0.276-0.224,0.5-0.5,0.5S77,43.776,77,43.5V29.429C77,25.884,74.116,23,70.571,23H29.429	C25.884,23,23,25.884,23,29.429V57.5C23,57.776,22.776,58,22.5,58z"/><path fill="#1f212b" d="M77.5,50c-0.276,0-0.5-0.224-0.5-0.5v-3c0-0.276,0.224-0.5,0.5-0.5s0.5,0.224,0.5,0.5v3	C78,49.776,77.776,50,77.5,50z"/><path fill="#eaa871" d="M82,65.5v1c0,0-1.5,5-12.5,5c-12.88,0-19.5,0-19.5,0s-6.62,0-19.5,0c-11,0-12.5-5-12.5-5v-1	c0,0,1.5-5,12.5-5c12.88,0,19.5,0,19.5,0s6.62,0,19.5,0C80.5,60.5,82,65.5,82,65.5z"/><path fill="#1f212b" d="M77.5,58c-0.276,0-0.5-0.224-0.5-0.5v-5c0-0.276,0.224-0.5,0.5-0.5s0.5,0.224,0.5,0.5v5	C78,57.776,77.776,58,77.5,58z"/><path fill="#1f212b" d="M82,72c-0.276,0-0.5-0.224-0.5-0.5v-5.912C81.285,65.064,79.294,61,69.5,61h-39	c-9.779,0-11.779,4.052-12,4.589V71.5c0,0.276-0.224,0.5-0.5,0.5s-0.5-0.224-0.5-0.5l0.021-6.144C17.587,65.138,19.257,60,30.5,60	h39c11.243,0,12.913,5.138,12.979,5.356L82.5,65.5v6C82.5,71.776,82.276,72,82,72z"/><path fill="#60bd91" d="M52.5,54.5c-1.51,1.96-1,7-1,11H49c0,0,0.5-3.26,0.5-6.46c0-0.9-0.31-2.44-1.07-4.11	c0,0,2.036,1.122,2.039,1.113C50.494,55.973,52.661,54.292,52.5,54.5z"/><path fill="#60bd91" d="M52.283,54.799c0-3,2.295-6.738,7.266-6.199c3.208,0.348,6.361,0.718,8.85-2.1	c0.556,2.147-2.854,11-9.85,11C55.022,57.5,54.418,55.261,52.283,54.799z"/><path fill="#1f212b" d="M69.5,72h-39c-11.243,0-12.913-5.138-12.979-5.356L17.5,66.5v-6c0-0.276,0.224-0.5,0.5-0.5	s0.5,0.224,0.5,0.5v5.912C18.715,66.936,20.706,71,30.5,71h39c9.779,0,11.779-4.052,12-4.589V60.5c0-0.276,0.224-0.5,0.5-0.5	s0.5,0.224,0.5,0.5l-0.021,6.144C82.413,66.862,80.743,72,69.5,72z"/><path fill="#1f212b" d="M51.5,66H49c-0.146,0-0.284-0.063-0.379-0.174c-0.095-0.111-0.137-0.257-0.115-0.401	C48.511,65.392,49,62.162,49,59.044c0-1.196-0.136-2.923-0.784-4.355c-0.114-0.251-0.002-0.548,0.25-0.662	c0.252-0.114,0.548-0.001,0.662,0.25C49.849,55.872,50,57.75,50,59.044c0,2.404-0.283,4.868-0.426,5.956h1.423	c-0.006-0.644-0.022-1.305-0.039-1.969c-0.084-3.409-0.17-6.933,1.146-8.637c1.583-2.05,5.009-3.523,7.588-2.448	c0.255,0.106,0.375,0.399,0.269,0.654c-0.106,0.255-0.399,0.376-0.654,0.269c-2.229-0.93-5.238,0.617-6.412,2.137	c-1.099,1.423-1.017,4.767-0.937,8C51.979,63.852,52,64.693,52,65.5C52,65.776,51.776,66,51.5,66z"/><path fill="#60bd91" d="M28.5,43.228c7.53,4.647,6.924,13.128,20.264,11.47C48.764,41.274,35.59,41.834,28.5,43.228z"/><path fill="#1f212b" d="M45.731,55.197c-6.66,0-9.236-3.081-11.945-6.317c-1.533-1.832-3.117-3.726-5.549-5.227	c-0.175-0.108-0.266-0.312-0.229-0.515c0.037-0.202,0.194-0.362,0.396-0.401c4.004-0.788,11.457-1.556,16.36,2.148	c2.763,2.087,4.343,5.302,4.696,9.555c0.022,0.268-0.17,0.504-0.437,0.538C47.825,55.127,46.731,55.197,45.731,55.197z M29.807,43.502c1.991,1.443,3.389,3.113,4.747,4.736c3.005,3.591,5.608,6.704,13.863,5.804c-0.403-3.718-1.833-6.529-4.256-8.359	C40.016,42.553,33.803,42.858,29.807,43.502z"/><path fill="#1f212b" d="M58.55,58c-2.296,0-3.452-0.884-4.472-1.665c-0.623-0.477-1.161-0.888-1.9-1.048	c-0.23-0.05-0.394-0.253-0.394-0.489c0-1.931,0.838-3.835,2.243-5.096c1.433-1.287,3.36-1.839,5.577-1.6	c3.193,0.347,6.126,0.664,8.422-1.934c0.122-0.139,0.309-0.198,0.491-0.155c0.18,0.043,0.321,0.182,0.367,0.361	c0.365,1.409-0.674,4.845-2.747,7.523C64.688,55.769,62.196,58,58.55,58z M52.796,54.421c0.751,0.249,1.329,0.691,1.89,1.12	C55.623,56.258,56.592,57,58.55,57c3.241,0,5.484-2.02,6.796-3.714c1.497-1.934,2.357-4.194,2.566-5.613	c-2.481,2.067-5.449,1.746-8.329,1.434c-2.013-0.218-3.673,0.249-4.889,1.34C53.589,51.439,52.896,52.902,52.796,54.421z"/><path fill="#1f212b" d="M50.469,56.543c-0.139,0-0.277-0.058-0.375-0.169c-3.464-3.936-9.225-7.366-9.283-7.4	c-0.238-0.141-0.316-0.447-0.176-0.685c0.141-0.237,0.448-0.315,0.685-0.176c0.234,0.138,5.625,3.348,9.207,7.246	c1.038-0.819,1.66-1.25,1.689-1.271c0.227-0.158,0.538-0.101,0.696,0.126c0.157,0.227,0.101,0.539-0.126,0.696	c-0.008,0.005-0.774,0.538-2.003,1.522C50.69,56.507,50.58,56.543,50.469,56.543z"/></svg>